<?xml version="1.0" encoding="UTF-8"?>
<svg id="Layer_1" xmlns="http://www.w3.org/2000/svg" version="1.1" viewBox="0 0 382.56 83.76">
  <!-- Generator: Adobe Illustrator 29.8.4, SVG Export Plug-In . SVG Version: 2.1.1 Build 6)  -->
  <path d="M106.25,55.28v22.97h-9.59V21.78h9.59v6.46c2.96-3.96,7-7.2,12.12-7.65,27.97-2.49,27.97,44.84,0,42.35-5.13-.46-9.17-3.69-12.12-7.65ZM116.76,29.03c-14.21,1.34-14.09,24.36.2,25.51,16.72,1.34,16.61-27.09-.2-25.51Z"/>
  <path d="M203.87,55.28v22.97h-9.59V21.78h9.59v6.46c2.96-3.96,7-7.2,12.12-7.65,27.97-2.49,27.97,44.84,0,42.35-5.13-.46-9.17-3.69-12.12-7.65ZM214.38,29.03c-14.21,1.34-14.09,24.36.2,25.51,16.72,1.34,16.61-27.09-.2-25.51Z"/>
  <path d="M14.39,61.74H4.56V10.05h23.87c5.79,0,11.28,4.35,13,9.76,2.68,8.42.71,16.28-7.12,20.76-4.95,2.83-19.91,6.58-19.91,13.64v7.54ZM14.39,40.68c3.84-4.12,14.46-5.54,17.08-10.36,1.38-2.55.97-7.91-1.65-9.7-.79-.54-2.89-1.24-3.8-1.24h-11.63v21.3Z"/>
  <path d="M88.98,61.74h-9.59v-6.22l-1.44,2.03c-14.29,13.46-32.17.35-30.95-17.71,1.75-25.75,40.46-26.43,41.99,1.44.37,6.7-.3,13.74,0,20.47ZM66.63,29.99c-13.87,1.07-12.95,24.47,1.84,23.62s15.02-24.91-1.84-23.62Z"/>
  <path d="M186.6,61.74h-9.59v-6.22l-1.44,2.03c-14.29,13.46-32.17.35-30.95-17.71,1.75-25.75,40.46-26.43,41.99,1.44.37,6.7-.3,13.74,0,20.47ZM164.25,29.99c-13.87,1.07-12.95,24.47,1.84,23.62s15.02-24.91-1.84-23.62Z"/>
  <path d="M331.47,61.74h-9.59v-6.22l-1.44,2.03c-14.29,13.46-32.17.35-30.95-17.71,1.75-25.75,40.46-26.43,41.99,1.44.37,6.7-.3,13.74,0,20.47ZM309.12,29.99c-13.87,1.07-12.95,24.47,1.84,23.62s15.02-24.91-1.84-23.62Z"/>
  <path d="M348.74,29.44l2.75-3.83c8.02-8.71,22.56-5.81,25.85,5.8.16.57.66,2.25.66,2.69v27.64h-9.35v-25.01c0-4.54-5.74-8.03-9.95-7.77-4.64.29-9.96,5.22-9.96,9.93v22.85h-9.59V5.86l.36-.36h8.87l.36.36v23.57Z"/>
  <path d="M260.67,20.65c15.92-1.54,27.57,12.73,22.77,27.98s-25.87,19.33-36.38,7c-10.77-12.63-3.1-33.37,13.62-34.98ZM262.11,29.27c-14.45,1.34-13.52,25.77,1.85,25.05,15.06-.7,14.23-26.54-1.85-25.05Z"/>
</svg>